<svg height="480pt" viewBox="0 0 480 480" width="480pt" xmlns="http://www.w3.org/2000/svg"><path d="m240 8c-128.128906 0-232 103.871094-232 232s103.871094 232 232 232 232-103.871094 232-232-103.871094-232-232-232zm0 384c-83.949219 0-152-68.050781-152-152s68.050781-152 152-152 152 68.050781 152 152-68.050781 152-152 152zm0 0" fill="#a71159"/><path d="m392 240c0 83.949219-68.050781 152-152 152s-152-68.050781-152-152 68.050781-152 152-152 152 68.050781 152 152zm0 0" fill="#ffda44"/><path d="m240 0c-132.546875 0-240 107.453125-240 240s107.453125 240 240 240 240-107.453125 240-240c-.148438-132.484375-107.515625-239.851562-240-240zm0 464c-123.710938 0-224-100.289062-224-224s100.289062-224 224-224 224 100.289062 224 224c-.140625 123.652344-100.347656 223.859375-224 224zm0 0"/><path d="m280 200h16c0-24.136719-20.902344-44.105469-48-47.457031v-16.542969h-16v16.542969c-27.097656 3.351562-48 23.320312-48 47.457031s20.902344 44.105469 48 47.457031v63.894531c-18.230469-2.976562-32-15.894531-32-31.351562h-16c0 24.136719 20.902344 44.105469 48 47.457031v16.542969h16v-16.542969c27.097656-3.351562 48-23.320312 48-47.457031s-20.902344-44.105469-48-47.457031v-63.894531c18.230469 2.976562 32 15.894531 32 31.351562zm-80 0c0-15.457031 13.769531-28.375 32-31.351562v62.703124c-18.230469-2.976562-32-15.894531-32-31.351562zm80 80c0 15.457031-13.769531 28.375-32 31.351562v-62.703124c18.230469 2.976562 32 15.894531 32 31.351562zm0 0"/><path d="m416 232h-16.40625c-4.171875-81.933594-69.660156-147.421875-151.59375-151.59375v-16.40625h-16v16.40625c-81.933594 4.171875-147.421875 69.660156-151.59375 151.59375h-16.40625v16h16.40625c4.171875 81.933594 69.660156 147.421875 151.59375 151.59375v16.40625h16v-16.40625c81.933594-4.171875 147.421875-69.660156 151.59375-151.59375h16.40625zm-168 151.59375v-15.59375h-16v15.59375c-73.105469-4.136719-131.457031-62.488281-135.59375-135.59375h15.59375v-16h-15.59375c4.136719-73.105469 62.488281-131.457031 135.59375-135.59375v15.59375h16v-15.59375c73.105469 4.136719 131.457031 62.488281 135.59375 135.59375h-15.59375v16h15.59375c-4.136719 73.105469-62.488281 131.457031-135.59375 135.59375zm0 0"/></svg>